<?xml version="1.0" encoding="UTF-8" standalone="no"?><!DOCTYPE svg PUBLIC "-//W3C//DTD SVG 1.1//EN" "http://www.w3.org/Graphics/SVG/1.1/DTD/svg11.dtd"><svg width="100%" height="100%" viewBox="0 0 32 32" version="1.1" xmlns="http://www.w3.org/2000/svg" xmlns:xlink="http://www.w3.org/1999/xlink" xml:space="preserve" xmlns:serif="http://www.serif.com/" style="fill-rule:evenodd;clip-rule:evenodd;stroke-linejoin:round;stroke-miterlimit:2;"><g><path d="M18.248,11.871c0,-1.669 1.355,-3.022 3.026,-3.022c1.671,0 3.026,1.353 3.026,3.021c0,1.669 -1.354,3.021 -3.026,3.021l-0.001,0c-1.671,0 -3.025,-1.352 -3.025,-3.02c0,0 -0.001,0 -0.001,-0.001l0.001,0.001Zm7.044,0.006c0,-2.221 -1.803,-4.021 -4.028,-4.021c-2.225,0 -4.028,1.8 -4.028,4.021c0,2.221 1.803,4.021 4.028,4.021c2.223,-0.003 4.025,-1.802 4.028,-4.021Zm-15.248,12.405l-1.968,-0.813c0.56,1.15 1.722,1.929 3.066,1.929c1.408,0 2.617,-0.855 3.132,-2.073l0.009,-0.022c0.166,-0.386 0.263,-0.837 0.263,-1.308c0,-1.875 -1.522,-3.394 -3.4,-3.394c-0.433,0 -0.847,0.081 -1.227,0.227l0.024,-0.007l2.034,0.84c0.911,0.388 1.538,1.276 1.538,2.309c0,1.383 -1.124,2.504 -2.509,2.504c-0.346,0 -0.676,-0.07 -0.976,-0.196l0.016,0.006l-0.001,-0.001Zm5.93,-24.282c-8.399,0.001 -15.288,6.451 -15.968,14.659l-0.004,0.058l8.592,3.545c0.714,-0.493 1.598,-0.786 2.552,-0.786l0.002,0c0.084,0 0.167,0.005 0.251,0.009l3.822,-5.523l0,-0.079c0.003,-3.329 2.708,-6.027 6.043,-6.027c3.337,0 6.043,2.701 6.043,6.032c0,3.331 -2.706,6.032 -6.043,6.032l-0.14,0l-5.445,3.882c0,0.069 0.005,0.14 0.005,0.212l0,0.003c0,2.499 -2.03,4.525 -4.534,4.525c-2.188,0 -4.015,-1.548 -4.439,-3.607l-0.005,-0.029l-6.152,-2.543c1.968,6.77 8.125,11.636 15.42,11.636c8.852,0 16.028,-7.163 16.028,-15.999c0,-8.836 -7.176,-15.999 -16.028,-15.999l0.001,-0.001Z" style="fill:#fff;fill-rule:nonzero;"/></g></svg>