<svg width="24" height="24" viewBox="0 0 24 24" fill="none" xmlns="http://www.w3.org/2000/svg">
<g clip-path="url(#clip0_56_2)">
<path d="M13.686 8.90325C13.686 7.6515 14.7022 6.63675 15.9555 6.63675C17.2087 6.63675 18.225 7.6515 18.225 8.9025C18.225 10.1542 17.2095 11.1682 15.9555 11.1682C14.7022 11.1682 13.686 10.1543 13.686 8.90325C13.686 8.90325 13.6852 8.90325 13.6852 8.9025L13.686 8.90325ZM18.969 8.90775C18.969 7.242 17.6167 5.892 15.948 5.892C14.2792 5.892 12.927 7.242 12.927 8.90775C12.927 10.5735 14.2792 11.9235 15.948 11.9235C17.6152 11.9212 18.9667 10.572 18.969 8.90775ZM7.53296 18.2115L6.05697 17.6017C6.47697 18.4642 7.34847 19.0485 8.35647 19.0485C9.41247 19.0485 10.3192 18.4073 10.7055 17.4938L10.7122 17.4772C10.8367 17.1877 10.9095 16.8495 10.9095 16.4963C10.9095 15.09 9.76796 13.9507 8.35946 13.9507C8.03471 13.9507 7.72421 14.0115 7.43921 14.121L7.45721 14.1157L8.98272 14.7457C9.66597 15.0367 10.1362 15.7027 10.1362 16.4775C10.1362 17.5147 9.29321 18.3555 8.25446 18.3555C7.99496 18.3555 7.74746 18.303 7.52246 18.2085L7.53446 18.213L7.53372 18.2123L7.53296 18.2115ZM11.9805 0C5.68121 0.00075 0.514465 4.83825 0.00446484 10.9943L0.00146484 11.0378L6.44546 13.6965C6.98096 13.3267 7.64396 13.107 8.35946 13.107H8.36096C8.42396 13.107 8.48622 13.1108 8.54922 13.1138L11.4157 8.9715V8.91225C11.418 6.4155 13.4467 4.392 15.948 4.392C18.4507 4.392 20.4802 6.41775 20.4802 8.916C20.4802 11.4142 18.4507 13.44 15.948 13.44H15.843L11.7592 16.3515C11.7592 16.4033 11.763 16.4565 11.763 16.5105V16.5128C11.763 18.387 10.2405 19.9065 8.36246 19.9065C6.72146 19.9065 5.35121 18.7455 5.03321 17.2012L5.02946 17.1795L0.415465 15.2723C1.89146 20.3498 6.50921 23.9993 11.9805 23.9993C18.6195 23.9993 24.0015 18.627 24.0015 12C24.0015 5.373 18.6195 0.00075 11.9805 0.00075L11.9812 0L11.9805 0Z" fill="white"/>
</g>
<defs>
<clipPath id="clip0_56_2">
<rect width="24" height="24" fill="white"/>
</clipPath>
</defs>
</svg>
